G04 #@! TF.FileFunction,Copper,L1,Top,Signal*
%FSLAX46Y46*%
G04 Gerber Fmt 4.6, Leading zero omitted, Abs format (unit mm)*
G04 Created by KiCad (PCBNEW 4.0.7) date Wednesday, 11 April 2018 'AMt' 07:59:09*
%MOMM*%
%LPD*%
G01*
G04 APERTURE LIST*
%ADD10C,0.100000*%
%ADD11C,2.200000*%
%ADD12C,3.000000*%
%ADD13R,3.000000X3.000000*%
%ADD14R,1.700000X1.700000*%
%ADD15O,1.700000X1.700000*%
%ADD16C,0.600000*%
%ADD17C,0.250000*%
G04 APERTURE END LIST*
D10*
D11*
X45243750Y-78581250D03*
X38893750Y-81121250D03*
X66675000Y-59531250D03*
X60325000Y-62071250D03*
X38100000Y-40481250D03*
X31750000Y-43021250D03*
X66675000Y-97631250D03*
X60325000Y-100171250D03*
D12*
X32810000Y-55100000D03*
D13*
X53300000Y-55100000D03*
D14*
X31600000Y-94700000D03*
D15*
X31600000Y-97240000D03*
X31600000Y-99780000D03*
X31600000Y-102320000D03*
D11*
X33337500Y-21431250D03*
X26987500Y-23971250D03*
X40481250Y-59531250D03*
X34131250Y-62071250D03*
X52387500Y-21431250D03*
X46037500Y-23971250D03*
X61912500Y-40481250D03*
X55562500Y-43021250D03*
X76200000Y-78581250D03*
X69850000Y-81121250D03*
X71437500Y-21431250D03*
X65087500Y-23971250D03*
X80962500Y-40481250D03*
X74612500Y-43021250D03*
X85725000Y-59531250D03*
X79375000Y-62071250D03*
X95250000Y-78581250D03*
X88900000Y-81121250D03*
X92868750Y-97631250D03*
X86518750Y-100171250D03*
X90487500Y-21431250D03*
X84137500Y-23971250D03*
X100012500Y-40481250D03*
X93662500Y-43021250D03*
X104775000Y-59531250D03*
X98425000Y-62071250D03*
X114300000Y-78581250D03*
X107950000Y-81121250D03*
X114300000Y-97631250D03*
X107950000Y-100171250D03*
X109537500Y-21431250D03*
X103187500Y-23971250D03*
X119062500Y-40481250D03*
X112712500Y-43021250D03*
X123825000Y-59531250D03*
X117475000Y-62071250D03*
X133350000Y-78581250D03*
X127000000Y-81121250D03*
X133350000Y-97631250D03*
X127000000Y-100171250D03*
X128587500Y-21431250D03*
X122237500Y-23971250D03*
X138112500Y-40481250D03*
X131762500Y-43021250D03*
X142875000Y-59531250D03*
X136525000Y-62071250D03*
X152400000Y-78581250D03*
X146050000Y-81121250D03*
X147637500Y-21431250D03*
X141287500Y-23971250D03*
X152400000Y-97631250D03*
X146050000Y-100171250D03*
D16*
X53900000Y-81800000D03*
X52400000Y-94400000D03*
X58000000Y-84800000D03*
X45900000Y-87000000D03*
X59200000Y-80000000D03*
X59200000Y-82800000D03*
X38200000Y-104600000D03*
X34000000Y-97300000D03*
X47000000Y-97700000D03*
X30300000Y-87200000D03*
X34800000Y-87000000D03*
X35800000Y-86700000D03*
X37100000Y-86600000D03*
X38200000Y-86400000D03*
X39300000Y-91600000D03*
D17*
X53900000Y-81800000D02*
X53900000Y-84800000D01*
X58000000Y-84800000D02*
X53900000Y-84800000D01*
X53900000Y-84800000D02*
X53900000Y-81800000D01*
X54800000Y-92000000D02*
X52400000Y-94400000D01*
X54800000Y-88000000D02*
X54800000Y-92000000D01*
X58000000Y-84800000D02*
X54800000Y-88000000D01*
X59200000Y-80000000D02*
X47400000Y-80000000D01*
X45900000Y-81500000D02*
X45900000Y-87000000D01*
X47400000Y-80000000D02*
X45900000Y-81500000D01*
X59200000Y-82800000D02*
X59200000Y-80000000D01*
X38200000Y-101500000D02*
X38200000Y-104600000D01*
X34000000Y-97300000D02*
X38200000Y-101500000D01*
X31700000Y-96400000D02*
X31800000Y-96500000D01*
X41900000Y-97700000D02*
X47000000Y-97700000D01*
X36300000Y-92100000D02*
X41900000Y-97700000D01*
X30300000Y-92100000D02*
X36300000Y-92100000D01*
X30300000Y-87200000D02*
X30300000Y-92100000D01*
X33337500Y-21431250D02*
X24868750Y-21431250D01*
X32800000Y-85000000D02*
X34800000Y-87000000D01*
X32800000Y-80500000D02*
X32800000Y-85000000D01*
X25800000Y-73500000D02*
X32800000Y-80500000D01*
X25800000Y-41100000D02*
X25800000Y-73500000D01*
X23900000Y-39200000D02*
X25800000Y-41100000D01*
X23900000Y-22400000D02*
X23900000Y-39200000D01*
X24868750Y-21431250D02*
X23900000Y-22400000D01*
X71437500Y-21431250D02*
X90487500Y-21431250D01*
X128587500Y-21431250D02*
X109537500Y-21431250D01*
X147637500Y-21431250D02*
X128587500Y-21431250D01*
X71437500Y-21431250D02*
X128587500Y-21431250D01*
X52387500Y-21431250D02*
X71437500Y-21431250D01*
X33337500Y-21431250D02*
X52387500Y-21431250D01*
X38100000Y-40481250D02*
X27718750Y-40481250D01*
X33800000Y-84700000D02*
X35800000Y-86700000D01*
X33800000Y-79500000D02*
X33800000Y-84700000D01*
X30100000Y-75800000D02*
X33800000Y-79500000D01*
X30100000Y-62200000D02*
X30100000Y-75800000D01*
X27700000Y-59800000D02*
X30100000Y-62200000D01*
X27700000Y-40500000D02*
X27700000Y-59800000D01*
X27718750Y-40481250D02*
X27700000Y-40500000D01*
X119062500Y-40481250D02*
X138112500Y-40481250D01*
X100012500Y-40481250D02*
X119062500Y-40481250D01*
X80962500Y-40481250D02*
X100012500Y-40481250D01*
X80962500Y-40481250D02*
X61912500Y-40481250D01*
X38100000Y-40481250D02*
X61912500Y-40481250D01*
X40481250Y-59531250D02*
X32168750Y-59531250D01*
X35000000Y-84500000D02*
X37100000Y-86600000D01*
X35000000Y-78800000D02*
X35000000Y-84500000D01*
X31300000Y-75100000D02*
X35000000Y-78800000D01*
X31300000Y-60400000D02*
X31300000Y-75100000D01*
X32168750Y-59531250D02*
X31300000Y-60400000D01*
X123825000Y-59531250D02*
X142875000Y-59531250D01*
X104775000Y-59531250D02*
X123825000Y-59531250D01*
X85725000Y-59531250D02*
X104775000Y-59531250D01*
X66675000Y-59531250D02*
X85725000Y-59531250D01*
X40481250Y-59531250D02*
X66675000Y-59531250D01*
X45243750Y-78581250D02*
X36518750Y-78581250D01*
X35600000Y-83800000D02*
X38200000Y-86400000D01*
X35600000Y-79500000D02*
X35600000Y-83800000D01*
X36518750Y-78581250D02*
X35600000Y-79500000D01*
X133350000Y-78581250D02*
X152400000Y-78581250D01*
X114300000Y-78581250D02*
X133350000Y-78581250D01*
X95250000Y-78581250D02*
X114300000Y-78581250D01*
X76200000Y-78581250D02*
X95250000Y-78581250D01*
X45243750Y-78581250D02*
X76200000Y-78581250D01*
X133350000Y-97631250D02*
X152400000Y-97631250D01*
X66675000Y-97631250D02*
X52331250Y-97631250D01*
X43500000Y-95800000D02*
X39300000Y-91600000D01*
X50500000Y-95800000D02*
X43500000Y-95800000D01*
X52331250Y-97631250D02*
X50500000Y-95800000D01*
X114300000Y-97631250D02*
X133350000Y-97631250D01*
X114300000Y-97631250D02*
X92868750Y-97631250D01*
X66675000Y-97631250D02*
X92868750Y-97631250D01*
M02*
