G04 #@! TF.FileFunction,Soldermask,Bot*
%FSLAX46Y46*%
G04 Gerber Fmt 4.6, Leading zero omitted, Abs format (unit mm)*
G04 Created by KiCad (PCBNEW 4.0.7) date Wednesday, 11 April 2018 'AMt' 07:59:09*
%MOMM*%
%LPD*%
G01*
G04 APERTURE LIST*
%ADD10C,0.100000*%
%ADD11C,2.200000*%
%ADD12C,4.000000*%
%ADD13C,1.700000*%
%ADD14C,3.000000*%
%ADD15R,3.000000X3.000000*%
%ADD16R,1.250000X1.500000*%
%ADD17R,1.300000X1.700000*%
%ADD18R,1.700000X1.700000*%
%ADD19O,1.700000X1.700000*%
%ADD20R,1.524000X2.032000*%
%ADD21R,1.300000X0.700000*%
%ADD22R,1.060000X0.650000*%
%ADD23R,2.500000X0.800000*%
%ADD24R,0.800000X2.500000*%
G04 APERTURE END LIST*
D10*
D11*
X45243750Y-78581250D03*
X38893750Y-81121250D03*
D12*
X42703750Y-83661250D03*
D13*
X37623750Y-83661250D03*
X47783750Y-83661250D03*
D11*
X66675000Y-59531250D03*
X60325000Y-62071250D03*
D12*
X64135000Y-64611250D03*
D13*
X59055000Y-64611250D03*
X69215000Y-64611250D03*
D11*
X38100000Y-40481250D03*
X31750000Y-43021250D03*
D12*
X35560000Y-45561250D03*
D13*
X30480000Y-45561250D03*
X40640000Y-45561250D03*
D11*
X66675000Y-97631250D03*
X60325000Y-100171250D03*
D12*
X64135000Y-102711250D03*
D13*
X59055000Y-102711250D03*
X69215000Y-102711250D03*
D14*
X32810000Y-55100000D03*
D15*
X53300000Y-55100000D03*
D16*
X52400000Y-81750000D03*
X52400000Y-84250000D03*
X63900000Y-81950000D03*
X63900000Y-84450000D03*
D17*
X24443750Y-19050000D03*
X27943750Y-19050000D03*
X26825000Y-38100000D03*
X30325000Y-38100000D03*
X29550000Y-58900000D03*
X33050000Y-58900000D03*
X31587500Y-76200000D03*
X35087500Y-76200000D03*
X41112500Y-19050000D03*
X44612500Y-19050000D03*
X50637500Y-38100000D03*
X54137500Y-38100000D03*
X55550000Y-58900000D03*
X59050000Y-58900000D03*
X68750000Y-74500000D03*
X72250000Y-74500000D03*
X55400000Y-95250000D03*
X58900000Y-95250000D03*
X60162500Y-19050000D03*
X63662500Y-19050000D03*
X69687500Y-38100000D03*
X73187500Y-38100000D03*
X74450000Y-57150000D03*
X77950000Y-57150000D03*
X83975000Y-76200000D03*
X87475000Y-76200000D03*
X81593750Y-95250000D03*
X85093750Y-95250000D03*
X79212500Y-19050000D03*
X82712500Y-19050000D03*
X88737500Y-38100000D03*
X92237500Y-38100000D03*
X93500000Y-57150000D03*
X97000000Y-57150000D03*
X103025000Y-76200000D03*
X106525000Y-76200000D03*
X103025000Y-95250000D03*
X106525000Y-95250000D03*
X98262500Y-19050000D03*
X101762500Y-19050000D03*
X107787500Y-38100000D03*
X111287500Y-38100000D03*
X112550000Y-57150000D03*
X116050000Y-57150000D03*
X122075000Y-76200000D03*
X125575000Y-76200000D03*
X122075000Y-95250000D03*
X125575000Y-95250000D03*
X117312500Y-19050000D03*
X120812500Y-19050000D03*
X126837500Y-38100000D03*
X130337500Y-38100000D03*
X131600000Y-57150000D03*
X135100000Y-57150000D03*
X141125000Y-76200000D03*
X144625000Y-76200000D03*
X136362500Y-19050000D03*
X139862500Y-19050000D03*
D18*
X31600000Y-94700000D03*
D19*
X31600000Y-97240000D03*
X31600000Y-99780000D03*
X31600000Y-102320000D03*
D20*
X52449000Y-78400000D03*
X55751000Y-78400000D03*
D21*
X61000000Y-79950000D03*
X61000000Y-81850000D03*
X61100000Y-84250000D03*
X61100000Y-86150000D03*
D11*
X33337500Y-21431250D03*
X26987500Y-23971250D03*
D12*
X30797500Y-26511250D03*
D13*
X25717500Y-26511250D03*
X35877500Y-26511250D03*
D11*
X40481250Y-59531250D03*
X34131250Y-62071250D03*
D12*
X37941250Y-64611250D03*
D13*
X32861250Y-64611250D03*
X43021250Y-64611250D03*
D11*
X52387500Y-21431250D03*
X46037500Y-23971250D03*
D12*
X49847500Y-26511250D03*
D13*
X44767500Y-26511250D03*
X54927500Y-26511250D03*
D11*
X61912500Y-40481250D03*
X55562500Y-43021250D03*
D12*
X59372500Y-45561250D03*
D13*
X54292500Y-45561250D03*
X64452500Y-45561250D03*
D11*
X76200000Y-78581250D03*
X69850000Y-81121250D03*
D12*
X73660000Y-83661250D03*
D13*
X68580000Y-83661250D03*
X78740000Y-83661250D03*
D11*
X71437500Y-21431250D03*
X65087500Y-23971250D03*
D12*
X68897500Y-26511250D03*
D13*
X63817500Y-26511250D03*
X73977500Y-26511250D03*
D11*
X80962500Y-40481250D03*
X74612500Y-43021250D03*
D12*
X78422500Y-45561250D03*
D13*
X73342500Y-45561250D03*
X83502500Y-45561250D03*
D11*
X85725000Y-59531250D03*
X79375000Y-62071250D03*
D12*
X83185000Y-64611250D03*
D13*
X78105000Y-64611250D03*
X88265000Y-64611250D03*
D11*
X95250000Y-78581250D03*
X88900000Y-81121250D03*
D12*
X92710000Y-83661250D03*
D13*
X87630000Y-83661250D03*
X97790000Y-83661250D03*
D11*
X92868750Y-97631250D03*
X86518750Y-100171250D03*
D12*
X90328750Y-102711250D03*
D13*
X85248750Y-102711250D03*
X95408750Y-102711250D03*
D11*
X90487500Y-21431250D03*
X84137500Y-23971250D03*
D12*
X87947500Y-26511250D03*
D13*
X82867500Y-26511250D03*
X93027500Y-26511250D03*
D11*
X100012500Y-40481250D03*
X93662500Y-43021250D03*
D12*
X97472500Y-45561250D03*
D13*
X92392500Y-45561250D03*
X102552500Y-45561250D03*
D11*
X104775000Y-59531250D03*
X98425000Y-62071250D03*
D12*
X102235000Y-64611250D03*
D13*
X97155000Y-64611250D03*
X107315000Y-64611250D03*
D11*
X114300000Y-78581250D03*
X107950000Y-81121250D03*
D12*
X111760000Y-83661250D03*
D13*
X106680000Y-83661250D03*
X116840000Y-83661250D03*
D11*
X114300000Y-97631250D03*
X107950000Y-100171250D03*
D12*
X111760000Y-102711250D03*
D13*
X106680000Y-102711250D03*
X116840000Y-102711250D03*
D11*
X109537500Y-21431250D03*
X103187500Y-23971250D03*
D12*
X106997500Y-26511250D03*
D13*
X101917500Y-26511250D03*
X112077500Y-26511250D03*
D11*
X119062500Y-40481250D03*
X112712500Y-43021250D03*
D12*
X116522500Y-45561250D03*
D13*
X111442500Y-45561250D03*
X121602500Y-45561250D03*
D11*
X123825000Y-59531250D03*
X117475000Y-62071250D03*
D12*
X121285000Y-64611250D03*
D13*
X116205000Y-64611250D03*
X126365000Y-64611250D03*
D11*
X133350000Y-78581250D03*
X127000000Y-81121250D03*
D12*
X130810000Y-83661250D03*
D13*
X125730000Y-83661250D03*
X135890000Y-83661250D03*
D11*
X133350000Y-97631250D03*
X127000000Y-100171250D03*
D12*
X130810000Y-102711250D03*
D13*
X125730000Y-102711250D03*
X135890000Y-102711250D03*
D11*
X128587500Y-21431250D03*
X122237500Y-23971250D03*
D12*
X126047500Y-26511250D03*
D13*
X120967500Y-26511250D03*
X131127500Y-26511250D03*
D11*
X138112500Y-40481250D03*
X131762500Y-43021250D03*
D12*
X135572500Y-45561250D03*
D13*
X130492500Y-45561250D03*
X140652500Y-45561250D03*
D11*
X142875000Y-59531250D03*
X136525000Y-62071250D03*
D12*
X140335000Y-64611250D03*
D13*
X135255000Y-64611250D03*
X145415000Y-64611250D03*
D11*
X152400000Y-78581250D03*
X146050000Y-81121250D03*
D12*
X149860000Y-83661250D03*
D13*
X144780000Y-83661250D03*
X154940000Y-83661250D03*
D11*
X147637500Y-21431250D03*
X141287500Y-23971250D03*
D12*
X145097500Y-26511250D03*
D13*
X140017500Y-26511250D03*
X150177500Y-26511250D03*
D22*
X55800000Y-83750000D03*
X55800000Y-82800000D03*
X55800000Y-81850000D03*
X58000000Y-81850000D03*
X58000000Y-83750000D03*
X58000000Y-82800000D03*
D23*
X49500000Y-92150000D03*
X49500000Y-93250000D03*
X49500000Y-94350000D03*
X49500000Y-95450000D03*
X49500000Y-96550000D03*
X49500000Y-97650000D03*
X49500000Y-98750000D03*
X49500000Y-99850000D03*
X49500000Y-100950000D03*
X49500000Y-102050000D03*
X49500000Y-103150000D03*
X49500000Y-104250000D03*
D24*
X33800000Y-89200000D03*
X34900000Y-89200000D03*
X36000000Y-89200000D03*
X37100000Y-89200000D03*
X38200000Y-89200000D03*
X39300000Y-89200000D03*
X40400000Y-89200000D03*
X41500000Y-89200000D03*
X42600000Y-89200000D03*
X43700000Y-89200000D03*
X44800000Y-89200000D03*
X45900000Y-89200000D03*
X45900000Y-107200000D03*
X44800000Y-107200000D03*
X43700000Y-107200000D03*
X42600000Y-107200000D03*
X41500000Y-107200000D03*
X40400000Y-107200000D03*
X39300000Y-107200000D03*
X38200000Y-107200000D03*
X37100000Y-107200000D03*
X36000000Y-107200000D03*
X34900000Y-107200000D03*
X33800000Y-107200000D03*
D17*
X141125000Y-95250000D03*
X144625000Y-95250000D03*
D11*
X152400000Y-97631250D03*
X146050000Y-100171250D03*
D12*
X149860000Y-102711250D03*
D13*
X144780000Y-102711250D03*
X154940000Y-102711250D03*
M02*
