G04 #@! TF.FileFunction,Copper,L2,Bot,Signal*
%FSLAX46Y46*%
G04 Gerber Fmt 4.6, Leading zero omitted, Abs format (unit mm)*
G04 Created by KiCad (PCBNEW 4.0.7) date Wednesday, 11 April 2018 'AMt' 07:59:09*
%MOMM*%
%LPD*%
G01*
G04 APERTURE LIST*
%ADD10C,0.100000*%
%ADD11C,2.200000*%
%ADD12C,3.000000*%
%ADD13R,3.000000X3.000000*%
%ADD14R,1.250000X1.500000*%
%ADD15R,1.300000X1.700000*%
%ADD16R,1.700000X1.700000*%
%ADD17O,1.700000X1.700000*%
%ADD18R,1.524000X2.032000*%
%ADD19R,1.300000X0.700000*%
%ADD20R,1.060000X0.650000*%
%ADD21R,2.500000X0.800000*%
%ADD22R,0.800000X2.500000*%
%ADD23C,0.600000*%
%ADD24C,0.250000*%
G04 APERTURE END LIST*
D10*
D11*
X45243750Y-78581250D03*
X38893750Y-81121250D03*
X66675000Y-59531250D03*
X60325000Y-62071250D03*
X38100000Y-40481250D03*
X31750000Y-43021250D03*
X66675000Y-97631250D03*
X60325000Y-100171250D03*
D12*
X32810000Y-55100000D03*
D13*
X53300000Y-55100000D03*
D14*
X52400000Y-81750000D03*
X52400000Y-84250000D03*
X63900000Y-81950000D03*
X63900000Y-84450000D03*
D15*
X24443750Y-19050000D03*
X27943750Y-19050000D03*
X26825000Y-38100000D03*
X30325000Y-38100000D03*
X29550000Y-58900000D03*
X33050000Y-58900000D03*
X31587500Y-76200000D03*
X35087500Y-76200000D03*
X41112500Y-19050000D03*
X44612500Y-19050000D03*
X50637500Y-38100000D03*
X54137500Y-38100000D03*
X55550000Y-58900000D03*
X59050000Y-58900000D03*
X68750000Y-74500000D03*
X72250000Y-74500000D03*
X55400000Y-95250000D03*
X58900000Y-95250000D03*
X60162500Y-19050000D03*
X63662500Y-19050000D03*
X69687500Y-38100000D03*
X73187500Y-38100000D03*
X74450000Y-57150000D03*
X77950000Y-57150000D03*
X83975000Y-76200000D03*
X87475000Y-76200000D03*
X81593750Y-95250000D03*
X85093750Y-95250000D03*
X79212500Y-19050000D03*
X82712500Y-19050000D03*
X88737500Y-38100000D03*
X92237500Y-38100000D03*
X93500000Y-57150000D03*
X97000000Y-57150000D03*
X103025000Y-76200000D03*
X106525000Y-76200000D03*
X103025000Y-95250000D03*
X106525000Y-95250000D03*
X98262500Y-19050000D03*
X101762500Y-19050000D03*
X107787500Y-38100000D03*
X111287500Y-38100000D03*
X112550000Y-57150000D03*
X116050000Y-57150000D03*
X122075000Y-76200000D03*
X125575000Y-76200000D03*
X122075000Y-95250000D03*
X125575000Y-95250000D03*
X117312500Y-19050000D03*
X120812500Y-19050000D03*
X126837500Y-38100000D03*
X130337500Y-38100000D03*
X131600000Y-57150000D03*
X135100000Y-57150000D03*
X141125000Y-76200000D03*
X144625000Y-76200000D03*
X136362500Y-19050000D03*
X139862500Y-19050000D03*
D16*
X31600000Y-94700000D03*
D17*
X31600000Y-97240000D03*
X31600000Y-99780000D03*
X31600000Y-102320000D03*
D18*
X52449000Y-78400000D03*
X55751000Y-78400000D03*
D19*
X61000000Y-79950000D03*
X61000000Y-81850000D03*
X61100000Y-84250000D03*
X61100000Y-86150000D03*
D11*
X33337500Y-21431250D03*
X26987500Y-23971250D03*
X40481250Y-59531250D03*
X34131250Y-62071250D03*
X52387500Y-21431250D03*
X46037500Y-23971250D03*
X61912500Y-40481250D03*
X55562500Y-43021250D03*
X76200000Y-78581250D03*
X69850000Y-81121250D03*
X71437500Y-21431250D03*
X65087500Y-23971250D03*
X80962500Y-40481250D03*
X74612500Y-43021250D03*
X85725000Y-59531250D03*
X79375000Y-62071250D03*
X95250000Y-78581250D03*
X88900000Y-81121250D03*
X92868750Y-97631250D03*
X86518750Y-100171250D03*
X90487500Y-21431250D03*
X84137500Y-23971250D03*
X100012500Y-40481250D03*
X93662500Y-43021250D03*
X104775000Y-59531250D03*
X98425000Y-62071250D03*
X114300000Y-78581250D03*
X107950000Y-81121250D03*
X114300000Y-97631250D03*
X107950000Y-100171250D03*
X109537500Y-21431250D03*
X103187500Y-23971250D03*
X119062500Y-40481250D03*
X112712500Y-43021250D03*
X123825000Y-59531250D03*
X117475000Y-62071250D03*
X133350000Y-78581250D03*
X127000000Y-81121250D03*
X133350000Y-97631250D03*
X127000000Y-100171250D03*
X128587500Y-21431250D03*
X122237500Y-23971250D03*
X138112500Y-40481250D03*
X131762500Y-43021250D03*
X142875000Y-59531250D03*
X136525000Y-62071250D03*
X152400000Y-78581250D03*
X146050000Y-81121250D03*
X147637500Y-21431250D03*
X141287500Y-23971250D03*
D20*
X55800000Y-83750000D03*
X55800000Y-82800000D03*
X55800000Y-81850000D03*
X58000000Y-81850000D03*
X58000000Y-83750000D03*
X58000000Y-82800000D03*
D21*
X49500000Y-92150000D03*
X49500000Y-93250000D03*
X49500000Y-94350000D03*
X49500000Y-95450000D03*
X49500000Y-96550000D03*
X49500000Y-97650000D03*
X49500000Y-98750000D03*
X49500000Y-99850000D03*
X49500000Y-100950000D03*
X49500000Y-102050000D03*
X49500000Y-103150000D03*
X49500000Y-104250000D03*
D22*
X33800000Y-89200000D03*
X34900000Y-89200000D03*
X36000000Y-89200000D03*
X37100000Y-89200000D03*
X38200000Y-89200000D03*
X39300000Y-89200000D03*
X40400000Y-89200000D03*
X41500000Y-89200000D03*
X42600000Y-89200000D03*
X43700000Y-89200000D03*
X44800000Y-89200000D03*
X45900000Y-89200000D03*
X45900000Y-107200000D03*
X44800000Y-107200000D03*
X43700000Y-107200000D03*
X42600000Y-107200000D03*
X41500000Y-107200000D03*
X40400000Y-107200000D03*
X39300000Y-107200000D03*
X38200000Y-107200000D03*
X37100000Y-107200000D03*
X36000000Y-107200000D03*
X34900000Y-107200000D03*
X33800000Y-107200000D03*
D15*
X141125000Y-95250000D03*
X144625000Y-95250000D03*
D11*
X152400000Y-97631250D03*
X146050000Y-100171250D03*
D23*
X53900000Y-81800000D03*
X52400000Y-94400000D03*
X58000000Y-84800000D03*
X45900000Y-87000000D03*
X59200000Y-80000000D03*
X59200000Y-82800000D03*
X38200000Y-104600000D03*
X34000000Y-97300000D03*
X47000000Y-97700000D03*
X30300000Y-87200000D03*
X34800000Y-87000000D03*
X35800000Y-86700000D03*
X37100000Y-86600000D03*
X38200000Y-86400000D03*
X39300000Y-91600000D03*
D24*
X50850000Y-84250000D02*
X49800000Y-83200000D01*
X43900000Y-55100000D02*
X32810000Y-55100000D01*
X49800000Y-61000000D02*
X43900000Y-55100000D01*
X49800000Y-83200000D02*
X49800000Y-61000000D01*
X33800000Y-89200000D02*
X33800000Y-92000000D01*
X44800000Y-91500000D02*
X44800000Y-89200000D01*
X44000000Y-92300000D02*
X44800000Y-91500000D01*
X34100000Y-92300000D02*
X44000000Y-92300000D01*
X33800000Y-92000000D02*
X34100000Y-92300000D01*
X31600000Y-102320000D02*
X29920000Y-102320000D01*
X31800000Y-89200000D02*
X33800000Y-89200000D01*
X29400000Y-91600000D02*
X31800000Y-89200000D01*
X29400000Y-101800000D02*
X29400000Y-91600000D01*
X29920000Y-102320000D02*
X29400000Y-101800000D01*
X44800000Y-89200000D02*
X44800000Y-86700000D01*
X44800000Y-86700000D02*
X45600000Y-85900000D01*
X45600000Y-85900000D02*
X49200000Y-85900000D01*
X49200000Y-85900000D02*
X50850000Y-84250000D01*
X50850000Y-84250000D02*
X52400000Y-84250000D01*
X52400000Y-84250000D02*
X54500000Y-84250000D01*
X54450000Y-84200000D02*
X54500000Y-84200000D01*
X54500000Y-84250000D02*
X54450000Y-84200000D01*
X54500000Y-82800000D02*
X54500000Y-84200000D01*
X54500000Y-84200000D02*
X54500000Y-85700000D01*
X55800000Y-82800000D02*
X54500000Y-82800000D01*
X54950000Y-86150000D02*
X61100000Y-86150000D01*
X54500000Y-85700000D02*
X54950000Y-86150000D01*
X61100000Y-86150000D02*
X62200000Y-86150000D01*
X62200000Y-86150000D02*
X63900000Y-84450000D01*
X53900000Y-81800000D02*
X55750000Y-81800000D01*
X55750000Y-81800000D02*
X55800000Y-81850000D01*
X52400000Y-81750000D02*
X53850000Y-81750000D01*
X53850000Y-81750000D02*
X53900000Y-81800000D01*
X58000000Y-83750000D02*
X58000000Y-84800000D01*
X52350000Y-94350000D02*
X49500000Y-94350000D01*
X52400000Y-94400000D02*
X52350000Y-94350000D01*
X52449000Y-78400000D02*
X52449000Y-81701000D01*
X52449000Y-81701000D02*
X52400000Y-81750000D01*
X55700000Y-81750000D02*
X55800000Y-81850000D01*
X52100000Y-81350000D02*
X52100000Y-81900000D01*
X52150000Y-81350000D02*
X52100000Y-81350000D01*
X52100000Y-81350000D02*
X52350000Y-81350000D01*
X52449000Y-78501000D02*
X52449000Y-55951000D01*
X52449000Y-55951000D02*
X53300000Y-55100000D01*
X52449000Y-78501000D02*
X52100000Y-78850000D01*
X53300000Y-55100000D02*
X52200000Y-55100000D01*
X53300000Y-55100000D02*
X52400000Y-56300000D01*
X31600000Y-94700000D02*
X42900000Y-94700000D01*
X45900000Y-91700000D02*
X45900000Y-89200000D01*
X42900000Y-94700000D02*
X45900000Y-91700000D01*
X45900000Y-87000000D02*
X45900000Y-89200000D01*
X58000000Y-82800000D02*
X59200000Y-82800000D01*
X59250000Y-79950000D02*
X61000000Y-79950000D01*
X59200000Y-80000000D02*
X59250000Y-79950000D01*
X61000000Y-79950000D02*
X63150000Y-79950000D01*
X63900000Y-80700000D02*
X63900000Y-81950000D01*
X63150000Y-79950000D02*
X63900000Y-80700000D01*
X27943750Y-19050000D02*
X27943750Y-23015000D01*
X27943750Y-23015000D02*
X26987500Y-23971250D01*
X31750000Y-43021250D02*
X31750000Y-39525000D01*
X31750000Y-39525000D02*
X30325000Y-38100000D01*
X33050000Y-58900000D02*
X33050000Y-60990000D01*
X33050000Y-60990000D02*
X34131250Y-62071250D01*
X38893750Y-81121250D02*
X36512500Y-77625000D01*
X36512500Y-77625000D02*
X35087500Y-76200000D01*
X44612500Y-19050000D02*
X44612500Y-22546250D01*
X44612500Y-22546250D02*
X46037500Y-23971250D01*
X55562500Y-43021250D02*
X55562500Y-39525000D01*
X55562500Y-39525000D02*
X54137500Y-38100000D01*
X59050000Y-58900000D02*
X59050000Y-60796250D01*
X59050000Y-60796250D02*
X60325000Y-62071250D01*
X59050000Y-58900000D02*
X59681250Y-58900000D01*
X72250000Y-74500000D02*
X72250000Y-78721250D01*
X72250000Y-78721250D02*
X69850000Y-81121250D01*
X58900000Y-95250000D02*
X58900000Y-96833750D01*
X58900000Y-96833750D02*
X60325000Y-100171250D01*
X63662500Y-19050000D02*
X63662500Y-22546250D01*
X63662500Y-22546250D02*
X65087500Y-23971250D01*
X74612500Y-43021250D02*
X74612500Y-39525000D01*
X74612500Y-39525000D02*
X73187500Y-38100000D01*
X79375000Y-62071250D02*
X79375000Y-58575000D01*
X79375000Y-58575000D02*
X77950000Y-57150000D01*
X88900000Y-81121250D02*
X88900000Y-77625000D01*
X88900000Y-77625000D02*
X87475000Y-76200000D01*
X86518750Y-100171250D02*
X86518750Y-96675000D01*
X86518750Y-96675000D02*
X85093750Y-95250000D01*
X82712500Y-19050000D02*
X82712500Y-22546250D01*
X82712500Y-22546250D02*
X84137500Y-23971250D01*
X93662500Y-43021250D02*
X93662500Y-39525000D01*
X93662500Y-39525000D02*
X92237500Y-38100000D01*
X98425000Y-62071250D02*
X98425000Y-58575000D01*
X98425000Y-58575000D02*
X97000000Y-57150000D01*
X107950000Y-81121250D02*
X107950000Y-77625000D01*
X107950000Y-77625000D02*
X106525000Y-76200000D01*
X107950000Y-100171250D02*
X107950000Y-96675000D01*
X107950000Y-96675000D02*
X106525000Y-95250000D01*
X101762500Y-19050000D02*
X101762500Y-22546250D01*
X101762500Y-22546250D02*
X103187500Y-23971250D01*
X112712500Y-43021250D02*
X112712500Y-39525000D01*
X112712500Y-39525000D02*
X111287500Y-38100000D01*
X117475000Y-62071250D02*
X117475000Y-58575000D01*
X117475000Y-58575000D02*
X116050000Y-57150000D01*
X117475000Y-62071250D02*
X117475000Y-57943750D01*
X117475000Y-57943750D02*
X116681250Y-57150000D01*
X116681250Y-57150000D02*
X116050000Y-57150000D01*
X127000000Y-81121250D02*
X127000000Y-77625000D01*
X127000000Y-77625000D02*
X125575000Y-76200000D01*
X127000000Y-100171250D02*
X127000000Y-96675000D01*
X127000000Y-96675000D02*
X125575000Y-95250000D01*
X120812500Y-19050000D02*
X120812500Y-22546250D01*
X120812500Y-22546250D02*
X122237500Y-23971250D01*
X131762500Y-43021250D02*
X131762500Y-39525000D01*
X131762500Y-39525000D02*
X130337500Y-38100000D01*
X136525000Y-62071250D02*
X136525000Y-58575000D01*
X136525000Y-58575000D02*
X135100000Y-57150000D01*
X146050000Y-81121250D02*
X146050000Y-77625000D01*
X146050000Y-77625000D02*
X144625000Y-76200000D01*
X139862500Y-19050000D02*
X139862500Y-22546250D01*
X139862500Y-22546250D02*
X141287500Y-23971250D01*
X31600000Y-97240000D02*
X33940000Y-97240000D01*
X38200000Y-104600000D02*
X38200000Y-107200000D01*
X33940000Y-97240000D02*
X34000000Y-97300000D01*
X31600000Y-99780000D02*
X36080000Y-99780000D01*
X39300000Y-103000000D02*
X39300000Y-107200000D01*
X36080000Y-99780000D02*
X39300000Y-103000000D01*
X55751000Y-78400000D02*
X56700000Y-78400000D01*
X56650000Y-83750000D02*
X55800000Y-83750000D01*
X56900000Y-83500000D02*
X56650000Y-83750000D01*
X56900000Y-78600000D02*
X56900000Y-83500000D01*
X56700000Y-78400000D02*
X56900000Y-78600000D01*
X55751000Y-78400000D02*
X55900000Y-78400000D01*
X55600000Y-78850000D02*
X55800000Y-79050000D01*
X55500000Y-78750000D02*
X55800000Y-79050000D01*
X61000000Y-81850000D02*
X61000000Y-84150000D01*
X61000000Y-84150000D02*
X61100000Y-84250000D01*
X58000000Y-81850000D02*
X61000000Y-81850000D01*
X34956250Y-107025000D02*
X35081250Y-107400000D01*
X31587500Y-76200000D02*
X31587500Y-78312500D01*
X47050000Y-97650000D02*
X49500000Y-97650000D01*
X47000000Y-97700000D02*
X47050000Y-97650000D01*
X30300000Y-79600000D02*
X30300000Y-87200000D01*
X31587500Y-78312500D02*
X30300000Y-79600000D01*
X31587500Y-76200000D02*
X30956250Y-76200000D01*
X29550000Y-58900000D02*
X29206250Y-73818750D01*
X29206250Y-73818750D02*
X31587500Y-76200000D01*
X26825000Y-54768750D02*
X29550000Y-58900000D01*
X26825000Y-38100000D02*
X26825000Y-54768750D01*
X24443750Y-35718750D02*
X26825000Y-38100000D01*
X24443750Y-19050000D02*
X24443750Y-35718750D01*
X68750000Y-74500000D02*
X68750000Y-76050000D01*
X55400000Y-92900000D02*
X55400000Y-95250000D01*
X56600000Y-91700000D02*
X55400000Y-92900000D01*
X62800000Y-91700000D02*
X56600000Y-91700000D01*
X66100000Y-88400000D02*
X62800000Y-91700000D01*
X66100000Y-78700000D02*
X66100000Y-88400000D01*
X68750000Y-76050000D02*
X66100000Y-78700000D01*
X55550000Y-58900000D02*
X55400000Y-67950000D01*
X55400000Y-67950000D02*
X68750000Y-74500000D01*
X55400000Y-95250000D02*
X55400000Y-97500000D01*
X54300000Y-98600000D02*
X49550000Y-98700000D01*
X55400000Y-97500000D02*
X54300000Y-98600000D01*
X49550000Y-98700000D02*
X49500000Y-98750000D01*
X50637500Y-38100000D02*
X50637500Y-45437500D01*
X55400000Y-50200000D02*
X55550000Y-58900000D01*
X50637500Y-45437500D02*
X55400000Y-50200000D01*
X41112500Y-19050000D02*
X41112500Y-28575000D01*
X41112500Y-28575000D02*
X50637500Y-38100000D01*
X49500000Y-99850000D02*
X53750000Y-99850000D01*
X71143750Y-105700000D02*
X81593750Y-95250000D01*
X59600000Y-105700000D02*
X71143750Y-105700000D01*
X53750000Y-99850000D02*
X59600000Y-105700000D01*
X83975000Y-76200000D02*
X83975000Y-78525000D01*
X81593750Y-80906250D02*
X81593750Y-95250000D01*
X83975000Y-78525000D02*
X81593750Y-80906250D01*
X83975000Y-76200000D02*
X83343750Y-76200000D01*
X74450000Y-57150000D02*
X74450000Y-71437500D01*
X74450000Y-71437500D02*
X83975000Y-76200000D01*
X69687500Y-38100000D02*
X69687500Y-52387500D01*
X69687500Y-52387500D02*
X74450000Y-57150000D01*
X60162500Y-19050000D02*
X60162500Y-28575000D01*
X60162500Y-28575000D02*
X69687500Y-38100000D01*
X103025000Y-95250000D02*
X103025000Y-99975000D01*
X53050000Y-100950000D02*
X49500000Y-100950000D01*
X58700000Y-106600000D02*
X53050000Y-100950000D01*
X96400000Y-106600000D02*
X58700000Y-106600000D01*
X103025000Y-99975000D02*
X96400000Y-106600000D01*
X103025000Y-76200000D02*
X103025000Y-95250000D01*
X93500000Y-57150000D02*
X93500000Y-71437500D01*
X93500000Y-71437500D02*
X103025000Y-76200000D01*
X88737500Y-38100000D02*
X88737500Y-52387500D01*
X88737500Y-52387500D02*
X93500000Y-57150000D01*
X79212500Y-19050000D02*
X79212500Y-28575000D01*
X79212500Y-28575000D02*
X88737500Y-38100000D01*
X122075000Y-95250000D02*
X122075000Y-100925000D01*
X52050000Y-102050000D02*
X49500000Y-102050000D01*
X57600000Y-107600000D02*
X52050000Y-102050000D01*
X115400000Y-107600000D02*
X57600000Y-107600000D01*
X122075000Y-100925000D02*
X115400000Y-107600000D01*
X49500000Y-102050000D02*
X50350000Y-102050000D01*
X121762500Y-95562500D02*
X122075000Y-95250000D01*
X122075000Y-76200000D02*
X122075000Y-95250000D01*
X112550000Y-57150000D02*
X112550000Y-71437500D01*
X112550000Y-71437500D02*
X122075000Y-76200000D01*
X107787500Y-38100000D02*
X107787500Y-52387500D01*
X107787500Y-52387500D02*
X112550000Y-57150000D01*
X98262500Y-19050000D02*
X98262500Y-28575000D01*
X98262500Y-28575000D02*
X107787500Y-38100000D01*
X141125000Y-95250000D02*
X141125000Y-104675000D01*
X141125000Y-76200000D02*
X141125000Y-104675000D01*
X51750000Y-103150000D02*
X49500000Y-103150000D01*
X57300000Y-108700000D02*
X51750000Y-103150000D01*
X137100000Y-108700000D02*
X57300000Y-108700000D01*
X141125000Y-104675000D02*
X137100000Y-108700000D01*
X49500000Y-103150000D02*
X49250000Y-103150000D01*
X131600000Y-57150000D02*
X131600000Y-71437500D01*
X131600000Y-71437500D02*
X141125000Y-76200000D01*
X126837500Y-38100000D02*
X126837500Y-52387500D01*
X126837500Y-52387500D02*
X131600000Y-57150000D01*
X117312500Y-19050000D02*
X117312500Y-28575000D01*
X117312500Y-28575000D02*
X126837500Y-38100000D01*
X147400000Y-110100000D02*
X152500000Y-110100000D01*
X157400000Y-105200000D02*
X157400000Y-97200000D01*
X152500000Y-110100000D02*
X157400000Y-105200000D01*
X136362500Y-19050000D02*
X136362500Y-29062500D01*
X157400000Y-79100000D02*
X157400000Y-97200000D01*
X154200000Y-75900000D02*
X157400000Y-79100000D01*
X149900000Y-75900000D02*
X154200000Y-75900000D01*
X147900000Y-73900000D02*
X149900000Y-75900000D01*
X147900000Y-60300000D02*
X147900000Y-73900000D01*
X143100000Y-55500000D02*
X147900000Y-60300000D01*
X143100000Y-35800000D02*
X143100000Y-55500000D01*
X136362500Y-29062500D02*
X143100000Y-35800000D01*
X49500000Y-107600000D02*
X49500000Y-104250000D01*
X52000000Y-110100000D02*
X49500000Y-107600000D01*
X147400000Y-110100000D02*
X52000000Y-110100000D01*
X34900000Y-87100000D02*
X34900000Y-89200000D01*
X34800000Y-87000000D02*
X34900000Y-87100000D01*
X36000000Y-86900000D02*
X36000000Y-89200000D01*
X35800000Y-86700000D02*
X36000000Y-86900000D01*
X37100000Y-86600000D02*
X37100000Y-89200000D01*
X38200000Y-86400000D02*
X38200000Y-89200000D01*
X39300000Y-91600000D02*
X39300000Y-89200000D01*
X146050000Y-100171250D02*
X146050000Y-96675000D01*
X146050000Y-96675000D02*
X144625000Y-95250000D01*
M02*
