M48
INCH,TZ
T1C0.067
T2C0.157
%
G90
G05
T1
X1.0125Y-1.0437
X1.2Y-1.7937
X1.2937Y-2.5437
X1.4125Y-1.0437
X1.4812Y-3.2937
X1.6Y-1.7937
X1.6937Y-2.5437
X1.7625Y-1.0437
X1.8812Y-3.2937
X2.1375Y-1.7937
X2.1625Y-1.0437
X2.325Y-2.5437
X2.325Y-4.0438
X2.5125Y-1.0437
X2.5375Y-1.7937
X2.7Y-3.2937
X2.725Y-2.5437
X2.725Y-4.0438
X2.8875Y-1.7937
X2.9125Y-1.0437
X3.075Y-2.5437
X3.1Y-3.2937
X3.2625Y-1.0437
X3.2875Y-1.7937
X3.3562Y-4.0438
X3.45Y-3.2937
X3.475Y-2.5437
X3.6375Y-1.7937
X3.6625Y-1.0437
X3.7563Y-4.0438
X3.825Y-2.5437
X3.85Y-3.2937
X4.0125Y-1.0437
X4.0375Y-1.7937
X4.2Y-3.2937
X4.2Y-4.0438
X4.225Y-2.5437
X4.3875Y-1.7937
X4.4125Y-1.0437
X4.575Y-2.5437
X4.6Y-3.2937
X4.6Y-4.0438
X4.7625Y-1.0437
X4.7875Y-1.7937
X4.95Y-3.2937
X4.95Y-4.0438
X4.975Y-2.5437
X5.1375Y-1.7937
X5.1625Y-1.0437
X5.325Y-2.5437
X5.35Y-3.2937
X5.35Y-4.0438
X5.5125Y-1.0437
X5.5375Y-1.7937
X5.7Y-3.2937
X5.7Y-4.0438
X5.725Y-2.5437
X5.9125Y-1.0437
X6.1Y-3.2937
X6.1Y-4.0438
T2
X1.2125Y-1.0437
X1.4Y-1.7937
X1.4937Y-2.5437
X1.6812Y-3.2937
X1.9625Y-1.0437
X2.3375Y-1.7937
X2.525Y-2.5437
X2.525Y-4.0438
X2.7125Y-1.0437
X2.9Y-3.2937
X3.0875Y-1.7937
X3.275Y-2.5437
X3.4625Y-1.0437
X3.5562Y-4.0438
X3.65Y-3.2937
X3.8375Y-1.7937
X4.025Y-2.5437
X4.2125Y-1.0437
X4.4Y-3.2937
X4.4Y-4.0438
X4.5875Y-1.7937
X4.775Y-2.5437
X4.9625Y-1.0437
X5.15Y-3.2937
X5.15Y-4.0438
X5.3375Y-1.7937
X5.525Y-2.5437
X5.7125Y-1.0437
X5.9Y-3.2937
X5.9Y-4.0438
T0
M30
