M48
INCH,TZ
T1C0.016
T2C0.039
T3C0.059
%
G90
G05
T1
X1.1929Y-3.4331
X1.3386Y-3.8307
X1.3701Y-3.4252
X1.4094Y-3.4134
X1.4606Y-3.4094
X1.5039Y-3.4016
X1.5039Y-4.1181
X1.5472Y-3.6063
X1.8071Y-3.4252
X1.8504Y-3.8465
X2.063Y-3.7165
X2.122Y-3.2205
X2.2835Y-3.3386
X2.3307Y-3.1496
X2.3307Y-3.2598
T2
X1.2441Y-3.7283
X1.2441Y-3.8283
X1.2441Y-3.9283
X1.2441Y-4.0283
T3
X1.0625Y-0.9437
X1.25Y-1.6937
X1.2917Y-2.1693
X1.3125Y-0.8438
X1.3438Y-2.4438
X1.5Y-1.5938
X1.5312Y-3.1938
X1.5938Y-2.3438
X1.7812Y-3.0938
X1.8125Y-0.9437
X2.0625Y-0.8438
X2.0984Y-2.1693
X2.1875Y-1.6937
X2.375Y-2.4438
X2.375Y-3.9438
X2.4375Y-1.5938
X2.5625Y-0.9437
X2.625Y-2.3438
X2.625Y-3.8438
X2.75Y-3.1938
X2.8125Y-0.8438
X2.9375Y-1.6937
X3.Y-3.0938
X3.125Y-2.4438
X3.1875Y-1.5938
X3.3125Y-0.9437
X3.375Y-2.3438
X3.4062Y-3.9438
X3.5Y-3.1938
X3.5625Y-0.8438
X3.6562Y-3.8438
X3.6875Y-1.6937
X3.75Y-3.0938
X3.875Y-2.4438
X3.9375Y-1.5938
X4.0625Y-0.9437
X4.125Y-2.3438
X4.25Y-3.1938
X4.25Y-3.9438
X4.3125Y-0.8438
X4.4375Y-1.6937
X4.5Y-3.0938
X4.5Y-3.8438
X4.625Y-2.4438
X4.6875Y-1.5938
X4.8125Y-0.9437
X4.875Y-2.3438
X5.Y-3.1938
X5.Y-3.9438
X5.0625Y-0.8438
X5.1875Y-1.6937
X5.25Y-3.0938
X5.25Y-3.8438
X5.375Y-2.4438
X5.4375Y-1.5938
X5.5625Y-0.9437
X5.625Y-2.3438
X5.75Y-3.1938
X5.75Y-3.9438
X5.8125Y-0.8438
X6.Y-3.0938
X6.Y-3.8438
T0
M30
